Coordinates
version=1
nRows=10
nColumns=46
inDegrees=yes

Units are S.I. units (second, meters, Newtons, ...)
Angles are in degrees.

endheader
time	pelvis_tilt	pelvis_list	pelvis_rotation	pelvis_tx	pelvis_ty	pelvis_tz	bb_angle	bb_tx	bb_ty	bb_tz	hip_flexion_r	hip_adduction_r	hip_rotation_r	knee_angle_r	knee_angle_r_beta	ankle_angle_r	subtalar_angle_r	mtp_angle_r	crank_angle_r	hip_flexion_l	hip_adduction_l	hip_rotation_l	knee_angle_l	knee_angle_l_beta	ankle_angle_l	subtalar_angle_l	mtp_angle_l	crank_angle_l	lumbar_extension	lumbar_bending	lumbar_rotation	arm_flex_r	arm_add_r	arm_rot_r	elbow_flex_r	pro_sup_r	wrist_flex_r	wrist_dev_r	arm_flex_l	arm_add_l	arm_rot_l	elbow_flex_l	pro_sup_l	wrist_flex_l	wrist_dev_l
      0.00000000	    -34.24706849	     -0.69769832	     -2.67581524	      0.07268989	      0.98247831	     -0.21373985	      0.00000000	      0.50000000	      0.00000000	      0.25000000	    103.06010755	     -8.24715391	     -4.85470492	     84.72393780	      1.47871167	     10.88290382	      2.54230660	      0.00000000	      0.00000000	     73.03713651	    -12.67931880	     -3.77359188	     74.74428100	      1.30453380	    -15.00666386	    -10.23547954	      0.00000000	      0.00000000	    -25.46985507	      0.86241032	      2.73407825	     85.51979047	     -3.86525523	     49.77710842	     22.86980284	     33.84648966	      0.00000000	      0.00000000	     82.59430979	    -13.58573951	     53.22002301	     30.02641375	     34.46525102	      0.00000000	      0.00000000
      0.00500000	    -34.31760567	     -0.68507762	     -2.69081759	      0.07279129	      0.98234227	     -0.21374777	      0.00000000	      0.50000000	      0.00000000	      0.25000000	    103.14790071	     -8.24269391	     -4.84254971	     84.74360804	      1.47905498	     10.85699437	      2.57260902	      0.00000000	      0.00000000	     73.09297586	    -12.68950939	     -3.79883049	     74.74501020	      1.30454653	    -14.95323069	    -10.19975189	      0.00000000	      0.00000000	    -25.35770798	      0.83595263	      2.75211907	     85.25795895	     -3.43046462	     47.13616680	     22.66558147	     34.71091404	      0.00000000	      0.00000000	     82.33875606	    -13.12529425	     51.28630774	     29.56935998	     35.39198329	      0.00000000	      0.00000000
      0.01000000	    -34.35137771	     -0.60655603	     -2.66442920	      0.07295535	      0.98240852	     -0.21388255	      0.00000000	      0.50000000	      0.00000000	      0.25000000	    103.19081104	     -8.30223954	     -4.77934853	     84.75086798	      1.47918169	     10.88213808	      2.63076526	      0.00000000	      0.00000000	     73.05564338	    -12.60527616	     -3.89616852	     74.66921818	      1.30322371	    -15.08688344	    -10.48527408	      0.00000000	      0.00000000	    -25.32668520	      0.76629131	      2.67027162	     85.08937295	     -3.18225512	     45.40740498	     22.67059229	     35.29480664	      0.00000000	      0.00000000	     82.09777955	    -12.89080872	     49.68665609	     29.66919217	     36.01389145	      0.00000000	      0.00000000
      0.01500000	    -34.43923233	     -0.68954614	     -2.76907164	      0.07311552	      0.98225464	     -0.21375794	      0.00000000	      0.50000000	      0.00000000	      0.25000000	    103.25259021	     -8.24577149	     -4.92893178	     84.75081776	      1.47918081	     10.81585297	      2.62660742	      0.00000000	      0.00000000	     73.15989709	    -12.76203927	     -3.81715392	     74.75400242	      1.30470347	    -14.76741551	    -10.08529937	      0.00000000	      0.00000000	    -25.19811298	      0.84521372	      2.80562662	     85.04733402	     -2.93794938	     44.85213378	     22.22007258	     35.94600362	      0.00000000	      0.00000000	     82.07702449	    -12.83852210	     49.83838922	     29.16250666	     36.77439470	      0.00000000	      0.00000000
      0.02000000	    -34.54573368	     -0.75710525	     -2.83519748	      0.07315981	      0.98179829	     -0.21358483	      0.00000000	      0.50000000	      0.00000000	      0.25000000	    103.37725573	     -8.19198628	     -4.99715575	     84.78029393	      1.47969527	     10.78570733	      2.70280441	      0.00000000	      0.00000000	     73.22390196	    -12.83492324	     -3.75266616	     74.68309038	      1.30346582	    -14.94916332	    -10.12926782	      0.00000000	      0.00000000	    -25.07971925	      0.88453186	      2.89865136	     85.23412009	     -3.86895232	     48.89665319	     21.58901508	     41.91954054	      0.00000000	      0.00000000	     82.17598308	    -13.32998287	     50.81757699	     28.72314440	     43.20843526	      0.00000000	      0.00000000
      0.02500000	    -34.61414369	     -0.77990659	     -2.85500746	      0.07329900	      0.98175209	     -0.21360640	      0.00000000	      0.50000000	      0.00000000	      0.25000000	    103.43467254	     -8.20411802	     -5.04929802	     84.77388467	      1.47958341	     10.74312708	      2.72245867	      0.00000000	      0.00000000	     73.26910415	    -12.85335796	     -3.73386015	     74.66159065	      1.30309058	    -14.97140511	    -10.06640162	      0.00000000	      0.00000000	    -24.99160988	      0.90214974	      2.93093564	     85.01464044	     -3.55818136	     46.89042786	     21.63633185	     41.76321037	      0.00000000	      0.00000000	     82.01923164	    -12.95784362	     49.57394275	     28.40040601	     43.10009478	      0.00000000	      0.00000000
      0.03000000	    -34.68348903	     -0.78094215	     -2.86510298	      0.07337350	      0.98165585	     -0.21362889	      0.00000000	      0.50000000	      0.00000000	      0.25000000	    103.50054532	     -8.21762079	     -5.07275241	     84.76530120	      1.47943360	     10.70486490	      2.72931055	      0.00000000	      0.00000000	     73.33411518	    -12.85124723	     -3.72382113	     74.66057391	      1.30307284	    -15.01677541	    -10.12324649	      0.00000000	      0.00000000	    -24.90794546	      0.90900817	      2.93402501	     84.93364309	     -3.54449725	     46.54159945	     21.69105616	     41.93412356	      0.00000000	      0.00000000	     81.92757110	    -13.00507849	     49.49639054	     28.55837423	     43.27659199	      0.00000000	      0.00000000
      0.03500000	    -34.72048661	     -0.78960640	     -2.84574745	      0.07347302	      0.98161094	     -0.21367006	      0.00000000	      0.50000000	      0.00000000	      0.25000000	    103.53235008	     -8.26330407	     -5.09427551	     84.76655806	      1.47945553	     10.67295362	      2.74693309	      0.00000000	      0.00000000	     73.36870786	    -12.83236310	     -3.70400824	     74.66809095	      1.30320403	    -15.00062570	    -10.06446827	      0.00000000	      0.00000000	    -24.85730060	      0.93691445	      2.90529241	     84.81132444	     -3.16483274	     44.88450545	     21.53527302	     41.97509730	      0.00000000	      0.00000000	     81.80622065	    -12.74145151	     48.43824692	     28.29965153	     43.27233709	      0.00000000	      0.00000000
      0.04000000	    -34.86717353	     -0.86672690	     -2.93849612	      0.07356167	      0.98140425	     -0.21356857	      0.00000000	      0.50000000	      0.00000000	      0.25000000	    103.62130282	     -8.19973277	     -5.21320168	     84.72323754	      1.47869945	     10.74870170	      2.92883372	      0.00000000	      0.00000000	     73.55692267	    -12.97411308	     -3.66422657	     74.72485797	      1.30419480	    -15.09088533	    -10.12656444	      0.00000000	      0.00000000	    -24.71390197	      1.00399966	      3.05947992	     84.49570737	     -3.38977552	     43.81139834	     22.56837588	     42.17909713	      0.00000000	      0.00000000	     81.43871361	    -12.89282595	     47.37040739	     29.28331668	     43.39949809	      0.00000000	      0.00000000
      0.04500000	    -34.91197059	     -0.82585763	     -2.91569385	      0.07370697	      0.98144936	     -0.21375252	      0.00000000	      0.50000000	      0.00000000	      0.25000000	    103.64735309	     -8.27409556	     -5.18854029	     84.68871523	      1.47809692	     10.78477539	      3.12591280	      0.00000000	      0.00000000	     73.58229298	    -12.90662908	     -3.71720742	     74.69798236	      1.30372574	    -15.32479845	    -10.49315292	      0.00000000	      0.00000000	    -24.64185045	      0.97877027	      3.02076191	     84.38086860	     -3.28519932	     43.12401069	     22.46470431	     42.23832488	      0.00000000	      0.00000000	     81.29769113	    -12.72293037	     46.79988178	     29.30832204	     43.42425674	      0.00000000	      0.00000000
